<svg width="45" height="34" viewBox="0 0 45 34" fill="none" xmlns="http://www.w3.org/2000/svg">
<path d="M16.5388 0.00573157C16.5388 0.00573157 10.3101 0.433716 6.23659 3.70474C6.21748 3.71238 6.19455 3.72385 6.17545 3.73531C5.46851 4.38875 4.93735 5.40139 4.28009 6.85349C3.62282 8.30558 2.92735 10.1742 2.29301 12.2644C1.02817 16.4487 0.000239077 21.5846 0.000239077 26.4185C-0.00358197 26.5905 0.0384525 26.7586 0.12252 26.9076C1.55168 29.4182 4.18073 30.9353 6.634 31.8906C9.08727 32.8459 11.3533 33.228 12.5035 33.2663C12.8283 33.2777 13.1378 33.1287 13.3289 32.8688L15.7134 29.5672C17.6355 30.022 19.8901 30.3315 22.5 30.3315C25.1099 30.3315 27.3645 30.022 29.2866 29.5672L31.6711 32.8688C31.8622 33.1287 32.1717 33.2777 32.4965 33.2663C33.6467 33.228 35.9127 32.8459 38.366 31.8906C40.8193 30.9353 43.4483 29.4182 44.8775 26.9076C44.9615 26.7586 45.0036 26.5905 44.9998 26.4185C44.9998 21.5846 43.9718 16.4487 42.707 12.2644C42.0727 10.1742 41.3772 8.30558 40.7199 6.85349C40.0627 5.40139 39.5315 4.38875 38.8246 3.73531C38.8055 3.72385 38.7825 3.71238 38.7634 3.70474C34.6899 0.433716 28.4612 0.00573157 28.4612 0.00573157C28.3886 -0.00191052 28.3198 -0.00191052 28.2472 0.00573157C27.9071 0.0515871 27.6205 0.273222 27.483 0.586568C27.483 0.586568 27.1505 1.31643 26.9327 2.35965C25.0259 2.05394 23.4209 1.96223 22.5 1.96223C21.5791 1.96223 19.9741 2.05394 18.0673 2.35965C17.8495 1.31643 17.517 0.586568 17.517 0.586568C17.3489 0.204439 16.9553 -0.0286598 16.5388 0.00573157ZM15.9274 2.11508C16 2.31379 16.0497 2.50103 16.1108 2.72649C13.9059 3.23854 11.4909 4.07541 9.23248 5.47782C8.8771 5.62685 8.644 5.97077 8.63253 6.35672C8.62489 6.73885 8.84271 7.09423 9.18662 7.26236C9.53436 7.42668 9.94706 7.377 10.2413 7.12862C14.7734 4.31997 20.5397 3.91873 22.5 3.91873C24.4603 3.91873 30.2267 4.31997 34.7587 7.12862C35.0529 7.377 35.4656 7.42668 35.8134 7.26236C36.1573 7.09423 36.3751 6.73885 36.3675 6.35672C36.356 5.97077 36.1229 5.62685 35.7675 5.47782C33.5091 4.07541 31.0941 3.23854 28.8892 2.72649C28.9503 2.50103 29 2.31379 29.0726 2.11508C30.1884 2.25265 34.5256 2.83731 37.4795 5.17212C37.6705 5.3479 38.3354 6.32615 38.9468 7.67888C39.5582 9.03162 40.2002 10.7932 40.8116 12.8147C42.0039 16.7583 42.9668 21.6228 43.0127 26.0822C41.9007 27.882 39.8143 29.2195 37.6629 30.0564C35.7064 30.8168 33.8798 31.1569 32.9245 31.2486L31.2737 29.017C32.1144 28.7457 32.871 28.4514 33.5359 28.161C36.0044 27.0758 37.3266 25.9294 37.3266 25.9294C37.7317 25.5663 37.7661 24.9435 37.403 24.5384C37.04 24.1334 36.4171 24.099 36.0121 24.462C36.0121 24.462 34.988 25.3982 32.7411 26.3879C31.9157 26.7509 30.9145 27.1101 29.7757 27.4273C29.5121 27.3967 29.2484 27.4732 29.0421 27.6413C27.2193 28.0846 25.0526 28.375 22.5 28.375C19.9283 28.375 17.7578 28.0578 15.9274 27.6107C15.721 27.4732 15.4688 27.4159 15.2243 27.4579C14.0817 27.1407 13.0882 26.7509 12.2589 26.3879C10.012 25.3982 8.98792 24.462 8.98792 24.462C8.76628 24.2556 8.46058 24.1678 8.16252 24.2174C7.78421 24.2748 7.47086 24.5461 7.36769 24.9167C7.26069 25.2836 7.38297 25.681 7.67339 25.9294C7.67339 25.9294 8.99556 27.0758 11.4641 28.161C12.129 28.4514 12.8856 28.7457 13.7263 29.017L12.0755 31.2486C11.1202 31.1569 9.29362 30.8168 7.33712 30.0564C5.18573 29.2195 3.09931 27.882 1.98731 26.0822C2.03317 21.6228 2.99613 16.7583 4.18837 12.8147C4.79978 10.7932 5.44176 9.03162 6.05316 7.67888C6.66457 6.32615 7.32948 5.3479 7.52054 5.17212C10.4744 2.83731 14.8116 2.25265 15.9274 2.11508ZM16.1414 13.7012C13.6461 13.7012 11.7392 15.9673 11.7392 18.5925C11.7392 21.2177 13.6461 23.4837 16.1414 23.4837C18.6367 23.4837 20.5435 21.2177 20.5435 18.5925C20.5435 15.9673 18.6367 13.7012 16.1414 13.7012ZM28.8586 13.7012C26.3633 13.7012 24.4565 15.9673 24.4565 18.5925C24.4565 21.2177 26.3633 23.4837 28.8586 23.4837C31.3539 23.4837 33.2608 21.2177 33.2608 18.5925C33.2608 15.9673 31.3539 13.7012 28.8586 13.7012ZM16.1414 15.6577C17.4291 15.6577 18.587 16.8958 18.587 18.5925C18.587 20.2891 17.4291 21.5272 16.1414 21.5272C14.8536 21.5272 13.6957 20.2891 13.6957 18.5925C13.6957 16.8958 14.8536 15.6577 16.1414 15.6577ZM28.8586 15.6577C30.1464 15.6577 31.3043 16.8958 31.3043 18.5925C31.3043 20.2891 30.1464 21.5272 28.8586 21.5272C27.5709 21.5272 26.413 20.2891 26.413 18.5925C26.413 16.8958 27.5709 15.6577 28.8586 15.6577Z" fill="black"/>
</svg>
