<svg width="54" height="54" viewBox="0 0 54 54" fill="none" xmlns="http://www.w3.org/2000/svg">
<g clip-path="url(#clip0_6_112)">
<path d="M26.875 0.25C12.2426 0.25 0.375 12.1154 0.375 26.75C0.375 38.4586 7.96725 48.3917 18.4988 51.8963C19.8216 52.1414 20.25 51.3199 20.25 50.6221V45.6887C12.8786 47.2919 11.3438 42.5617 11.3438 42.5617C10.138 39.4987 8.40008 38.6838 8.40008 38.6838C5.99521 37.0386 8.58337 37.074 8.58337 37.074C11.2444 37.2595 12.6445 39.8057 12.6445 39.8057C15.0074 43.8558 18.8433 42.6853 20.356 42.0074C20.5923 40.2959 21.2791 39.1255 22.0387 38.4652C16.1535 37.7917 9.96579 35.5193 9.96579 25.3676C9.96579 22.4725 11.0015 20.1095 12.6953 18.2545C12.4215 17.5854 11.5138 14.889 12.9537 11.2409C12.9537 11.2409 15.1797 10.5298 20.2434 13.9571C22.3567 13.3697 24.6225 13.076 26.875 13.065C29.1275 13.076 31.3955 13.3697 33.5132 13.9571C38.5725 10.5298 40.7941 11.2409 40.7941 11.2409C42.2362 14.8912 41.3285 17.5876 41.0547 18.2545C42.7551 20.1095 43.782 22.4747 43.782 25.3676C43.782 35.5458 37.5832 37.7873 31.6825 38.4431C32.6321 39.2646 33.5 40.8767 33.5 43.35V50.6221C33.5 51.3265 33.924 52.1547 35.2689 51.8941C45.7916 48.385 53.375 38.4542 53.375 26.75C53.375 12.1154 41.5096 0.25 26.875 0.25Z" fill="white"/>
</g>
<defs>
<clipPath id="clip0_6_112">
<rect width="53" height="53" fill="white" transform="translate(0.375 0.25)"/>
</clipPath>
</defs>
</svg>
