<svg width="45" height="45" viewBox="0 0 45 45" fill="none" xmlns="http://www.w3.org/2000/svg">
<path d="M28.125 41.25V33.75C28.3858 31.4012 27.7123 29.044 26.25 27.1875C31.875 27.1875 37.5 23.4375 37.5 16.875C37.65 14.5312 36.9937 12.225 35.625 10.3125C36.15 8.15625 36.15 5.90625 35.625 3.75C35.625 3.75 33.75 3.75 30 6.5625C25.05 5.625 19.95 5.625 15 6.5625C11.25 3.75 9.37498 3.75 9.37498 3.75C8.81248 5.90625 8.81248 8.15625 9.37498 10.3125C8.00974 12.2173 7.34711 14.5365 7.49998 16.875C7.49998 23.4375 13.125 27.1875 18.75 27.1875C18.0187 28.1063 17.475 29.1562 17.1562 30.2812C16.8375 31.4062 16.7437 32.5875 16.875 33.75V41.25" stroke="black" stroke-width="2" stroke-linecap="round" stroke-linejoin="round"/>
<path d="M16.875 33.75C8.41875 37.5 7.5 30 3.75 30" stroke="black" stroke-width="2" stroke-linecap="round" stroke-linejoin="round"/>
</svg>
