<svg width="15" height="15" viewBox="0 0 15 15" fill="none" xmlns="http://www.w3.org/2000/svg">
<path d="M9.375 13.125V8.125C9.375 7.95924 9.30915 7.80027 9.19194 7.68306C9.07473 7.56585 8.91576 7.5 8.75 7.5H6.25C6.08424 7.5 5.92527 7.56585 5.80806 7.68306C5.69085 7.80027 5.625 7.95924 5.625 8.125V13.125" stroke="black" stroke-linecap="round" stroke-linejoin="round"/>
<path d="M1.875 6.25004C1.87496 6.06821 1.91458 5.88856 1.99112 5.72361C2.06765 5.55867 2.17925 5.41241 2.31813 5.29504L6.69312 1.54567C6.91874 1.35498 7.2046 1.25037 7.5 1.25037C7.7954 1.25037 8.08126 1.35498 8.30688 1.54567L12.6819 5.29504C12.8208 5.41241 12.9323 5.55867 13.0089 5.72361C13.0854 5.88856 13.125 6.06821 13.125 6.25004V11.875C13.125 12.2066 12.9933 12.5245 12.7589 12.7589C12.5245 12.9933 12.2065 13.125 11.875 13.125H3.125C2.79348 13.125 2.47554 12.9933 2.24112 12.7589C2.0067 12.5245 1.875 12.2066 1.875 11.875V6.25004Z" stroke="black" stroke-linecap="round" stroke-linejoin="round"/>
</svg>
