<svg width="45" height="45" viewBox="0 0 45 45" fill="none" xmlns="http://www.w3.org/2000/svg">
<path d="M31.875 3.75H13.125C7.94733 3.75 3.75 7.94733 3.75 13.125V31.875C3.75 37.0527 7.94733 41.25 13.125 41.25H31.875C37.0527 41.25 41.25 37.0527 41.25 31.875V13.125C41.25 7.94733 37.0527 3.75 31.875 3.75Z" stroke="black" stroke-width="2" stroke-linecap="round" stroke-linejoin="round"/>
<path d="M30 21.3188C30.2314 22.8793 29.9649 24.473 29.2383 25.8732C28.5117 27.2735 27.3621 28.409 25.953 29.1182C24.5439 29.8275 22.9471 30.0743 21.3896 29.8237C19.8321 29.5731 18.3933 28.8377 17.2778 27.7223C16.1623 26.6068 15.427 25.168 15.1764 23.6105C14.9258 22.053 15.1726 20.4561 15.8819 19.047C16.5911 17.6379 17.7266 16.4883 19.1268 15.7618C20.5271 15.0352 22.1208 14.7687 23.6813 15.0001C25.273 15.2361 26.7466 15.9778 27.8844 17.1157C29.0223 18.2535 29.764 19.7271 30 21.3188Z" stroke="black" stroke-width="2" stroke-linecap="round" stroke-linejoin="round"/>
<path d="M32.8125 12.1875H32.8313" stroke="black" stroke-width="2" stroke-linecap="round" stroke-linejoin="round"/>
</svg>
